<?xml version="1.0" encoding="UTF-8"?><svg id="Ebene_2" xmlns="http://www.w3.org/2000/svg" viewBox="0 0 424.5 366.5"><g id="Ebene_1-2"><path d="M347,122c-2.3-5.5-5.5-10.2-9.5-14.3-4-4-8.9-7.3-14.5-9.7s-11.7-3.7-18.3-3.7h-139.5c0,34,27.5,61.5,61.5,61.5h60.4v38.8H105.6v-100.2h-63.4v117.2c0,5.9,1.2,11.5,3.7,17,2.4,5.5,5.8,10.2,9.9,14.3,4.2,4,9.2,7.3,15,9.7,5.9,2.4,12.1,3.6,18.6,3.6h216.4c5.8,0,11.5-1.1,17-3.5,5.5-2.3,10.2-5.5,14.3-9.5,4-4,7.3-8.8,9.7-14.5,2.4-5.6,3.7-11.7,3.7-18.3v-71.4c0-5.8-1.1-11.4-3.5-17M48.3,61.5h302.2v-13.2c0-26.7-21.6-48.3-48.3-48.3H0v13.2c0,26.6,21.7,48.3,48.3,48.3" style="fill:#1d1d1b;"/><path d="M223.7,329v-11.8h-46.2c-1.1,0-2.2.2-3.3.7-1.1.4-2,1.1-2.7,1.8-.8.8-1.4,1.7-1.9,2.8-.5,1.1-.7,2.2-.7,3.5v31.8c0,1.1.2,2.2.7,3.3.5,1.1,1.1,2,1.9,2.7.8.8,1.8,1.4,2.9,1.9,1.1.5,2.3.7,3.6.7h45.7v-11.8h-42.6v-25.6h42.6Z" style="fill:#1d1d1b;"/><polygon points="265.3 341.1 283.7 317.2 269.6 317.2 254.7 336.5 243.8 336.5 243.8 317.2 231.6 317.2 231.6 366.4 243.8 366.4 243.8 348.3 255.4 348.3 271.6 366.4 287.1 366.4 265.3 341.1" style="fill:#1d1d1b;"/><path d="M338.3,332.7v22h-35v-25.6h31.4c2,0,3.6-1.6,3.6-3.6v-8.3h-38.6c-1.1,0-2.2.2-3.3.7-1,.5-2,1.1-2.7,1.8-.8.8-1.4,1.7-1.9,2.8-.5,1.1-.7,2.3-.7,3.5v31.9c0,1.1.2,2.2.7,3.3.5,1.1,1.1,2,1.9,2.7.8.8,1.8,1.4,2.9,1.9s2.3.7,3.6.7h41.7c1.1,0,2.2-.2,3.3-.7,1-.4,2-1.1,2.7-1.8.8-.8,1.4-1.7,1.9-2.8.5-1.1.7-2.2.7-3.5v-28.6h-8.5c-2.1-.1-3.7,1.6-3.7,3.6" style="fill:#1d1d1b;"/><path d="M117.9,317.2h43.9v11.8h-52.8v-2.9c0-4.9,3.9-8.9,8.9-8.9" style="fill:#1d1d1b;"/><path d="M161.8,354.6v11.8h-43.8c-1.3,0-2.5-.2-3.6-.7s-2.1-1.1-2.9-1.9c-.8-.8-1.4-1.7-1.9-2.7-.5-1.1-.7-2.1-.7-3.3v-22.5h47.3v11.9h-35.1v7.4h40.7Z" style="fill:#1d1d1b;"/><path d="M370.6,286.7c7.6,0,10.6,4.3,10.6,10.1v14.3c0,4.4-1.2,6.1-6.3,6.1h-14.3c-7.2,0-10.2-3.5-10.2-9.3,0-5.5,2.8-8.8,10.3-8.8h14.5v-2.3c0-2.4-1.3-4.2-4.7-4.2h-15.4c-1.6,0-2.9-1.3-2.9-2.8v-3h18.4v-.1ZM375.2,309.7v-5.7h-14.4c-3.2,0-4.4,1.3-4.4,3.6s1.2,3.7,4.3,3.7h12.8c1.3,0,1.7-.5,1.7-1.6" style="fill:#1d1d1b;"/><rect x="389.3" y="286.7" width="6.1" height="30.5" style="fill:#1d1d1b;"/><path d="M424.5,286.7v3c0,1.6-1.3,2.9-2.9,2.9h-7.8c-2.7,0-3.9,1.3-3.9,3.9v20.7h-6.1v-21.6c0-6.1,2.3-8.9,8.3-8.9h12.4Z" style="fill:#1d1d1b;"/><path d="M101.1,340.7c-.5-1.1-1.1-2-1.8-2.7s-1.7-1.4-2.8-1.9-2.2-.7-3.5-.7h-26.8c0,6.5,5.3,11.8,11.8,11.8h11.6v7.4h-34.8v-19.3h-12.2v22.5c0,1.1.2,2.2.7,3.3.5,1.1,1.1,2,1.9,2.7.8.8,1.8,1.4,2.9,1.9s2.3.7,3.6.7h41.5c1.1,0,2.2-.2,3.3-.7,1.1-.4,2-1.1,2.7-1.8.8-.8,1.4-1.7,1.9-2.8.5-1.1.7-2.2.7-3.5v-13.7c0-1.1-.3-2.2-.7-3.2M43.8,329h58v-2.5c0-5.1-4.2-9.3-9.3-9.3h-58v2.5c0,5.2,4.2,9.3,9.3,9.3" style="fill:#1d1d1b;"/></g></svg>