<svg xmlns="http://www.w3.org/2000/svg" id="Ebene_2" viewBox="0 0 1080.12 1121.49"><g id="Ebene_1-2"><polygon points="736.99 806.38 619.61 923.76 736.99 1041.99 656.35 1121.49 540.06 1004.3 423.77 1121.49 343.13 1041.99 460.47 923.76 343.13 806.38 423.77 726.83 540.06 844.07 656.35 726.83 736.99 806.38" style="fill:#010101; stroke-width:0px;"></polygon><path d="M540.07,620.78c-196.34,0-383.1-61.87-540.07-178.93l69.38-93.05c136.78,101.99,299.54,155.9,470.69,155.9s333.89-53.91,470.67-155.9l69.38,93.05c-156.98,117.05-343.72,178.93-540.05,178.93Z" style="fill:#010101; stroke-width:0px;"></path><polygon points="365.23 0 243.18 0 381.44 333.66 503.49 333.66 365.23 0" style="fill:#010101; stroke-width:0px;"></polygon><polygon points="644.06 0 522.01 0 660.27 333.66 782.33 333.66 644.06 0" style="fill:#010101; stroke-width:0px;"></polygon></g></svg>